<mxfile host="app.diagrams.net" modified="2022-01-21T03:03:29.898Z" agent="5.0 (Windows NT 10.0; WOW64) AppleWebKit/537.36 (KHTML, like Gecko) Chrome/97.0.4692.71 Safari/537.36" etag="PpQ3E-e_-RGBkBvcatno" version="16.4.3" type="github">
  <diagram id="8suITTV-QxFtMzTHUn1g" name="Page-1">
    <mxGraphModel dx="782" dy="1676" grid="1" gridSize="10" guides="1" tooltips="1" connect="1" arrows="1" fold="1" page="1" pageScale="1" pageWidth="827" pageHeight="1169" math="0" shadow="0">
      <root>
        <mxCell id="0" />
        <mxCell id="1" parent="0" />
        <mxCell id="dA-IOLJsgwA-pLQc5Exa-7" value="" style="ellipse;shape=cloud;whiteSpace=wrap;html=1;fontSize=13;strokeWidth=2;fillColor=none;" vertex="1" parent="1">
          <mxGeometry x="30" y="-40" width="700" height="330" as="geometry" />
        </mxCell>
        <mxCell id="dA-IOLJsgwA-pLQc5Exa-1" value="&lt;b&gt;&lt;font style=&quot;font-size: 20px&quot;&gt;github repositories&lt;/font&gt;&lt;/b&gt;" style="rounded=0;whiteSpace=wrap;html=1;strokeWidth=2;" vertex="1" parent="1">
          <mxGeometry x="160" y="80" width="480" height="40" as="geometry" />
        </mxCell>
        <mxCell id="dA-IOLJsgwA-pLQc5Exa-2" value="&lt;font style=&quot;font-size: 13px&quot;&gt;&lt;b&gt;liugangjian.github.io&lt;/b&gt;&lt;/font&gt;" style="rounded=0;whiteSpace=wrap;html=1;fontSize=20;strokeWidth=2;" vertex="1" parent="1">
          <mxGeometry x="160" y="140" width="160" height="40" as="geometry" />
        </mxCell>
        <mxCell id="dA-IOLJsgwA-pLQc5Exa-11" style="edgeStyle=orthogonalEdgeStyle;rounded=0;orthogonalLoop=1;jettySize=auto;html=1;exitX=0;exitY=0.5;exitDx=0;exitDy=0;fontSize=13;strokeWidth=2;" edge="1" parent="1" source="dA-IOLJsgwA-pLQc5Exa-3" target="dA-IOLJsgwA-pLQc5Exa-2">
          <mxGeometry relative="1" as="geometry" />
        </mxCell>
        <mxCell id="dA-IOLJsgwA-pLQc5Exa-14" style="edgeStyle=orthogonalEdgeStyle;rounded=0;orthogonalLoop=1;jettySize=auto;html=1;exitX=0;exitY=0.5;exitDx=0;exitDy=0;entryX=1;entryY=0.5;entryDx=0;entryDy=0;fontSize=19;strokeWidth=2;endArrow=none;endFill=0;dashed=1;" edge="1" parent="1" source="dA-IOLJsgwA-pLQc5Exa-3" target="dA-IOLJsgwA-pLQc5Exa-13">
          <mxGeometry relative="1" as="geometry">
            <Array as="points">
              <mxPoint x="350" y="160" />
              <mxPoint x="350" y="335" />
            </Array>
          </mxGeometry>
        </mxCell>
        <mxCell id="dA-IOLJsgwA-pLQc5Exa-23" value="&lt;font style=&quot;font-size: 11px ; font-weight: normal&quot;&gt;actions&lt;/font&gt;" style="edgeLabel;html=1;align=center;verticalAlign=middle;resizable=0;points=[];fontSize=20;fontStyle=1" vertex="1" connectable="0" parent="dA-IOLJsgwA-pLQc5Exa-14">
          <mxGeometry x="-0.6389" y="-6" relative="1" as="geometry">
            <mxPoint x="15" y="-8" as="offset" />
          </mxGeometry>
        </mxCell>
        <mxCell id="dA-IOLJsgwA-pLQc5Exa-3" value="&lt;b&gt;hugoBlog Source&lt;/b&gt;" style="rounded=0;whiteSpace=wrap;html=1;fontSize=13;strokeWidth=2;" vertex="1" parent="1">
          <mxGeometry x="400" y="140" width="120" height="40" as="geometry" />
        </mxCell>
        <mxCell id="dA-IOLJsgwA-pLQc5Exa-12" style="edgeStyle=orthogonalEdgeStyle;rounded=0;orthogonalLoop=1;jettySize=auto;html=1;exitX=0.5;exitY=1;exitDx=0;exitDy=0;fontSize=13;entryX=0.5;entryY=1;entryDx=0;entryDy=0;strokeWidth=2;" edge="1" parent="1" source="dA-IOLJsgwA-pLQc5Exa-4" target="dA-IOLJsgwA-pLQc5Exa-3">
          <mxGeometry relative="1" as="geometry">
            <mxPoint x="430" y="190" as="targetPoint" />
            <Array as="points">
              <mxPoint x="590" y="210" />
              <mxPoint x="460" y="210" />
            </Array>
          </mxGeometry>
        </mxCell>
        <mxCell id="dA-IOLJsgwA-pLQc5Exa-4" value="&lt;b&gt;draw.io&lt;/b&gt;" style="rounded=0;whiteSpace=wrap;html=1;fontSize=13;strokeWidth=2;" vertex="1" parent="1">
          <mxGeometry x="540" y="140" width="100" height="40" as="geometry" />
        </mxCell>
        <mxCell id="dA-IOLJsgwA-pLQc5Exa-10" style="edgeStyle=orthogonalEdgeStyle;rounded=0;orthogonalLoop=1;jettySize=auto;html=1;exitX=0.5;exitY=0;exitDx=0;exitDy=0;entryX=0.5;entryY=1;entryDx=0;entryDy=0;fontSize=13;strokeWidth=2;" edge="1" parent="1" source="dA-IOLJsgwA-pLQc5Exa-9" target="dA-IOLJsgwA-pLQc5Exa-3">
          <mxGeometry relative="1" as="geometry" />
        </mxCell>
        <mxCell id="dA-IOLJsgwA-pLQc5Exa-18" style="edgeStyle=orthogonalEdgeStyle;rounded=0;orthogonalLoop=1;jettySize=auto;html=1;exitX=0;exitY=0.5;exitDx=0;exitDy=0;entryX=1;entryY=0.769;entryDx=0;entryDy=0;entryPerimeter=0;dashed=1;fontSize=19;endArrow=none;endFill=0;strokeWidth=2;" edge="1" parent="1" source="dA-IOLJsgwA-pLQc5Exa-9" target="dA-IOLJsgwA-pLQc5Exa-13">
          <mxGeometry relative="1" as="geometry" />
        </mxCell>
        <mxCell id="dA-IOLJsgwA-pLQc5Exa-9" value="&lt;b&gt;hugoBlog Source&lt;/b&gt;" style="rounded=0;whiteSpace=wrap;html=1;fontSize=13;strokeWidth=2;" vertex="1" parent="1">
          <mxGeometry x="400" y="340" width="120" height="60" as="geometry" />
        </mxCell>
        <mxCell id="dA-IOLJsgwA-pLQc5Exa-13" value="&lt;b style=&quot;font-size: 19px&quot;&gt;hugo&lt;br&gt;&lt;br&gt;github action&lt;/b&gt;" style="rounded=1;whiteSpace=wrap;html=1;fontSize=13;strokeWidth=2;fillColor=none;" vertex="1" parent="1">
          <mxGeometry x="160" y="270" width="150" height="130" as="geometry" />
        </mxCell>
        <mxCell id="dA-IOLJsgwA-pLQc5Exa-19" value="&lt;b&gt;&lt;font style=&quot;font-size: 20px&quot;&gt;local device&lt;/font&gt;&lt;/b&gt;" style="rounded=0;whiteSpace=wrap;html=1;fontSize=19;strokeWidth=2;fillColor=none;" vertex="1" parent="1">
          <mxGeometry x="160" y="420" width="480" height="40" as="geometry" />
        </mxCell>
      </root>
    </mxGraphModel>
  </diagram>
</mxfile>
